<svg width="375" height="62" viewBox="0 0 375 62" fill="none" xmlns="http://www.w3.org/2000/svg">
<g clip-path="url(#clip0_306_1053)">
<path d="M200 0H248V37.6429C248 51.0949 237.255 62 224 62C210.745 62 200 51.0949 200 37.6429V0Z" fill="#143151"/>
<path d="M205.488 36.0884C203.986 34.6483 201.487 34.8629 201.487 34.8629C201.487 34.8629 201.422 37.415 202.924 38.855C204.427 40.295 206.927 40.0804 206.927 40.0804C206.927 40.0804 206.991 37.5284 205.488 36.0884Z" fill="white"/>
<path d="M205.973 41.3721C204.165 40.3564 201.797 41.1948 201.797 41.1948C201.797 41.1948 202.359 43.6832 204.168 44.6987C205.976 45.7144 208.345 44.8756 208.345 44.8756C208.345 44.8756 207.781 42.3876 205.973 41.3721Z" fill="white"/>
<path d="M207.86 46.2406C205.861 45.7082 203.769 47.1126 203.769 47.1126C203.769 47.1126 204.918 49.3837 206.917 49.9161C208.916 50.4485 211.009 49.0435 211.009 49.0435C211.009 49.0435 209.859 46.7729 207.86 46.2406Z" fill="white"/>
<path d="M210.878 50.5079C208.811 50.4899 207.124 52.3723 207.124 52.3723C207.124 52.3723 208.787 54.2877 210.853 54.3059C212.92 54.324 214.608 52.4407 214.608 52.4407C214.608 52.4407 212.945 50.5261 210.878 50.5079Z" fill="white"/>
<path d="M214.838 53.9011C212.831 54.4003 211.652 56.6467 211.652 56.6467C211.652 56.6467 213.729 58.0873 215.736 57.5881C217.743 57.089 218.923 54.8414 218.923 54.8414C218.923 54.8414 216.845 53.4019 214.838 53.9011Z" fill="white"/>
<path d="M219.494 56.1982C217.672 57.188 217.08 59.6613 217.08 59.6613C217.08 59.6613 219.444 60.5329 221.266 59.5431C223.088 58.5534 223.68 56.0788 223.68 56.0788C223.68 56.0788 221.316 55.2085 219.494 56.1982Z" fill="white"/>
<path d="M242.559 36.0884C244.062 34.6483 246.561 34.8629 246.561 34.8629C246.561 34.8629 246.626 37.415 245.123 38.855C243.621 40.295 241.121 40.0804 241.121 40.0804C241.121 40.0804 241.057 37.5284 242.559 36.0884Z" fill="white"/>
<path d="M242.074 41.3721C243.883 40.3564 246.251 41.1948 246.251 41.1948C246.251 41.1948 245.688 43.6832 243.88 44.6987C242.072 45.7144 239.703 44.8756 239.703 44.8756C239.703 44.8756 240.266 42.3876 242.074 41.3721Z" fill="white"/>
<path d="M240.188 46.2406C242.187 45.7082 244.278 47.1126 244.278 47.1126C244.278 47.1126 243.129 49.3837 241.13 49.9161C239.131 50.4485 237.039 49.0435 237.039 49.0435C237.039 49.0435 238.189 46.7729 240.188 46.2406Z" fill="white"/>
<path d="M237.17 50.5079C239.236 50.4899 240.924 52.3723 240.924 52.3723C240.924 52.3723 239.261 54.2877 237.194 54.3059C235.128 54.324 233.439 52.4407 233.439 52.4407C233.439 52.4407 235.103 50.5261 237.17 50.5079Z" fill="white"/>
<path d="M233.209 53.9011C235.217 54.4003 236.396 56.6467 236.396 56.6467C236.396 56.6467 234.319 58.0873 232.312 57.5881C230.304 57.089 229.125 54.8414 229.125 54.8414C229.125 54.8414 231.202 53.4019 233.209 53.9011Z" fill="white"/>
<path d="M228.554 56.1982C230.376 57.188 230.968 59.6613 230.968 59.6613C230.968 59.6613 228.603 60.5329 226.781 59.5431C224.959 58.5534 224.367 56.0788 224.367 56.0788C224.367 56.0788 226.732 55.2085 228.554 56.1982Z" fill="white"/>
<path d="M223.078 37.0533C223.353 37.2965 224 37.0691 224 36.6989V18.5544C224 18.4971 223.986 18.4407 223.957 18.3919C223.671 17.9249 221.922 15.4409 216.964 15.4409C212.005 15.4409 210.256 17.9249 209.971 18.3919C209.941 18.4407 209.927 18.4971 209.927 18.5544V36.6989C209.927 37.0691 210.574 37.2965 210.849 37.0533C211.831 36.185 213.704 35.1112 216.964 35.1112C220.224 35.1112 222.096 36.185 223.078 37.0533Z" fill="white"/>
<path d="M223.078 37.0533C223.353 37.2965 224 37.0691 224 36.6989V18.5544C224 18.4971 223.986 18.4407 223.957 18.3919C223.671 17.9249 221.922 15.4409 216.964 15.4409C212.005 15.4409 210.256 17.9249 209.971 18.3919C209.941 18.4407 209.927 18.4971 209.927 18.5544V36.6989C209.927 37.0691 210.574 37.2965 210.849 37.0533C211.831 36.185 213.704 35.1112 216.964 35.1112C220.224 35.1112 222.096 36.185 223.078 37.0533Z" fill="white"/>
<path d="M213.055 15.6679C213.055 15.6077 213.079 15.55 213.123 15.5074C213.167 15.4648 213.227 15.4409 213.289 15.4409H217.511C217.573 15.4409 217.633 15.4648 217.677 15.5074C217.721 15.55 217.745 15.6077 217.745 15.6679V22.0925C217.746 22.1674 217.723 22.2407 217.68 22.303C217.637 22.3653 217.576 22.414 217.504 22.4427C217.433 22.4713 217.354 22.4788 217.278 22.4642C217.202 22.4495 217.132 22.4134 217.078 22.3603L215.677 21.0046C215.641 20.9694 215.597 20.9414 215.55 20.9223C215.502 20.9033 215.451 20.8935 215.4 20.8935C215.349 20.8935 215.298 20.9033 215.25 20.9223C215.203 20.9414 215.16 20.9694 215.123 21.0046L213.722 22.3603C213.668 22.4134 213.598 22.4495 213.522 22.4642C213.446 22.4788 213.367 22.4713 213.296 22.4427C213.224 22.414 213.163 22.3653 213.12 22.303C213.077 22.2407 213.054 22.1674 213.055 22.0925V15.6679Z" fill="#143151"/>
<path d="M226.545 36.8981C226.268 37.1525 225.564 36.9181 225.564 36.5389V18.5457C225.564 18.494 225.574 18.4437 225.599 18.3983C225.841 17.9479 227.391 15.4409 231.818 15.4409C236.246 15.4409 237.795 17.9479 238.038 18.3983C238.062 18.4437 238.073 18.494 238.073 18.5457V36.5389C238.073 36.9181 237.368 37.1525 237.091 36.8981C236.181 36.0624 234.545 35.1112 231.818 35.1112C229.091 35.1112 227.456 36.0624 226.545 36.8981Z" fill="white"/>
<path d="M214.89 5.31447V4.43018H216.633V10.6288H215.669V5.31447H214.89Z" fill="white"/>
<path d="M219.135 8.94521C219.191 9.22864 219.311 9.44405 219.495 9.59143C219.679 9.73881 219.928 9.8125 220.241 9.8125C220.637 9.8125 220.928 9.65378 221.112 9.33634C221.296 9.0189 221.388 8.47755 221.388 7.7123C221.254 7.90503 221.064 8.05524 220.819 8.16295C220.579 8.26498 220.316 8.316 220.031 8.316C219.668 8.316 219.339 8.24231 219.043 8.09492C218.746 7.94187 218.512 7.71796 218.339 7.4232C218.171 7.12276 218.087 6.75998 218.087 6.33483C218.087 5.71129 218.266 5.21529 218.624 4.84683C218.987 4.47271 219.484 4.28564 220.115 4.28564C220.875 4.28564 221.414 4.54356 221.732 5.0594C222.056 5.56958 222.218 6.35467 222.218 7.4147C222.218 8.14594 222.156 8.74398 222.034 9.2088C221.916 9.67362 221.71 10.0251 221.414 10.2632C221.118 10.5012 220.707 10.6203 220.182 10.6203C219.584 10.6203 219.124 10.4616 218.8 10.1441C218.476 9.82667 218.294 9.42704 218.255 8.94521H219.135ZM220.199 7.49972C220.534 7.49972 220.796 7.39486 220.986 7.18512C221.182 6.96971 221.279 6.68628 221.279 6.33483C221.279 5.9437 221.176 5.64043 220.969 5.42503C220.768 5.20395 220.492 5.09342 220.14 5.09342C219.788 5.09342 219.509 5.20679 219.302 5.43353C219.101 5.6546 219.001 5.94654 219.001 6.30932C219.001 6.65511 219.098 6.94137 219.294 7.16811C219.495 7.38919 219.797 7.49972 220.199 7.49972Z" fill="white"/>
<path d="M226.547 5.86689C226.486 5.60614 226.374 5.41057 226.212 5.28019C226.05 5.14982 225.824 5.08463 225.534 5.08463C225.092 5.08463 224.763 5.25752 224.545 5.6033C224.327 5.94342 224.213 6.51027 224.202 7.30387C224.347 7.05446 224.559 6.86172 224.838 6.72568C225.118 6.58963 225.419 6.52161 225.743 6.52161C226.112 6.52161 226.436 6.6038 226.715 6.76819C227 6.92691 227.22 7.15932 227.377 7.46543C227.539 7.77153 227.62 8.13715 227.62 8.5623C227.62 8.9591 227.542 9.31338 227.385 9.62515C227.234 9.93692 227.008 10.1835 226.707 10.3649C226.405 10.5406 226.042 10.6285 225.617 10.6285C225.042 10.6285 224.59 10.5009 224.26 10.2459C223.936 9.98511 223.707 9.61948 223.573 9.14899C223.445 8.6785 223.38 8.0918 223.38 7.3889C223.38 5.3142 224.101 4.27686 225.542 4.27686C226.101 4.27686 226.539 4.42991 226.857 4.73601C227.181 5.04211 227.371 5.41907 227.427 5.86689H226.547ZM225.534 7.33788C225.193 7.33788 224.903 7.44275 224.662 7.65249C224.428 7.85656 224.31 8.15416 224.31 8.54529C224.31 8.93642 224.419 9.24819 224.637 9.4806C224.861 9.70735 225.171 9.82072 225.567 9.82072C225.919 9.82072 226.196 9.71018 226.397 9.48911C226.603 9.26803 226.707 8.97327 226.707 8.60481C226.707 8.21935 226.606 7.91324 226.405 7.6865C226.21 7.45409 225.919 7.33788 225.534 7.33788Z" fill="white"/>
<path d="M232.576 5.26337H229.77V6.95544C229.887 6.79672 230.06 6.66351 230.289 6.55581C230.524 6.4481 230.772 6.39425 231.035 6.39425C231.504 6.39425 231.884 6.49629 232.174 6.70035C232.47 6.90442 232.68 7.16234 232.803 7.47411C232.931 7.78589 232.995 8.11466 232.995 8.46045C232.995 8.87992 232.914 9.25405 232.752 9.58282C232.596 9.90593 232.359 10.161 232.04 10.3481C231.727 10.5351 231.342 10.6287 230.884 10.6287C230.275 10.6287 229.786 10.4756 229.418 10.1695C229.049 9.86342 228.829 9.45811 228.756 8.95361H229.686C229.747 9.22003 229.884 9.43261 230.096 9.59133C230.309 9.74438 230.574 9.8209 230.892 9.8209C231.289 9.8209 231.585 9.69903 231.781 9.45528C231.982 9.21153 232.082 8.88842 232.082 8.48595C232.082 8.07782 231.982 7.76605 231.781 7.55064C231.579 7.32957 231.283 7.21903 230.892 7.21903C230.619 7.21903 230.387 7.28989 230.197 7.4316C230.013 7.56765 229.879 7.75471 229.795 7.99279H228.89V4.41309H232.576V5.26337Z" fill="white"/>
<path d="M201.047 3.4541H207.244V4.16267C207.244 4.26051 207.165 4.33982 207.069 4.33982H201.222C201.125 4.33982 201.047 4.26051 201.047 4.16267V3.4541Z" fill="white"/>
<path d="M240.669 3.4541H246.865V4.16267C246.865 4.26051 246.787 4.33982 246.691 4.33982H240.844C240.747 4.33982 240.669 4.26051 240.669 4.16267V3.4541Z" fill="white"/>
<path d="M245.731 4.33984H241.804V35.5692C241.849 35.5219 241.896 35.4754 241.944 35.4295C243.052 34.3672 244.52 33.9013 245.731 33.7024V4.33984Z" fill="white"/>
<path d="M206.109 4.33984H202.182V33.5427C203.416 33.7285 204.942 34.1814 206.109 35.2502V4.33984Z" fill="white"/>
</g>
<path d="M261.008 9.88V16.968C261.008 17.8107 261.227 18.4453 261.664 18.872C262.112 19.2987 262.731 19.512 263.52 19.512C264.32 19.512 264.939 19.2987 265.376 18.872C265.824 18.4453 266.048 17.8107 266.048 16.968V9.88H267.872V16.936C267.872 17.8427 267.675 18.6107 267.28 19.24C266.885 19.8693 266.357 20.3387 265.696 20.648C265.035 20.9573 264.304 21.112 263.504 21.112C262.704 21.112 261.973 20.9573 261.312 20.648C260.661 20.3387 260.144 19.8693 259.76 19.24C259.376 18.6107 259.184 17.8427 259.184 16.936V9.88H261.008ZM279.383 21H277.559L272.071 12.696V21H270.247V9.864H272.071L277.559 18.152V9.864H279.383V21ZM283.602 11.352V14.616H287.442V16.104H283.602V19.512H287.922V21H281.778V9.864H287.922V11.352H283.602ZM289.561 15.416C289.561 14.328 289.811 13.352 290.313 12.488C290.825 11.624 291.513 10.952 292.377 10.472C293.251 9.98133 294.206 9.736 295.241 9.736C296.425 9.736 297.475 10.0293 298.393 10.616C299.321 11.192 299.993 12.0133 300.409 13.08H298.217C297.929 12.4933 297.529 12.056 297.017 11.768C296.505 11.48 295.913 11.336 295.241 11.336C294.505 11.336 293.849 11.5013 293.273 11.832C292.697 12.1627 292.243 12.6373 291.913 13.256C291.593 13.8747 291.433 14.5947 291.433 15.416C291.433 16.2373 291.593 16.9573 291.913 17.576C292.243 18.1947 292.697 18.6747 293.273 19.016C293.849 19.3467 294.505 19.512 295.241 19.512C295.913 19.512 296.505 19.368 297.017 19.08C297.529 18.792 297.929 18.3547 298.217 17.768H300.409C299.993 18.8347 299.321 19.656 298.393 20.232C297.475 20.808 296.425 21.096 295.241 21.096C294.195 21.096 293.241 20.856 292.377 20.376C291.513 19.8853 290.825 19.208 290.313 18.344C289.811 17.48 289.561 16.504 289.561 15.416ZM262.864 37.112C262.117 37.112 261.445 36.984 260.848 36.728C260.251 36.4613 259.781 36.088 259.44 35.608C259.099 35.128 258.928 34.568 258.928 33.928H260.88C260.923 34.408 261.109 34.8027 261.44 35.112C261.781 35.4213 262.256 35.576 262.864 35.576C263.493 35.576 263.984 35.4267 264.336 35.128C264.688 34.8187 264.864 34.424 264.864 33.944C264.864 33.5707 264.752 33.2667 264.528 33.032C264.315 32.7973 264.043 32.616 263.712 32.488C263.392 32.36 262.944 32.2213 262.368 32.072C261.643 31.88 261.051 31.688 260.592 31.496C260.144 31.2933 259.76 30.984 259.44 30.568C259.12 30.152 258.96 29.5973 258.96 28.904C258.96 28.264 259.12 27.704 259.44 27.224C259.76 26.744 260.208 26.376 260.784 26.12C261.36 25.864 262.027 25.736 262.784 25.736C263.861 25.736 264.741 26.008 265.424 26.552C266.117 27.0853 266.501 27.8213 266.576 28.76H264.56C264.528 28.3547 264.336 28.008 263.984 27.72C263.632 27.432 263.168 27.288 262.592 27.288C262.069 27.288 261.643 27.4213 261.312 27.688C260.981 27.9547 260.816 28.3387 260.816 28.84C260.816 29.1813 260.917 29.464 261.12 29.688C261.333 29.9013 261.6 30.072 261.92 30.2C262.24 30.328 262.677 30.4667 263.232 30.616C263.968 30.8187 264.565 31.0213 265.024 31.224C265.493 31.4267 265.888 31.7413 266.208 32.168C266.539 32.584 266.704 33.144 266.704 33.848C266.704 34.4133 266.549 34.9467 266.24 35.448C265.941 35.9493 265.499 36.3547 264.912 36.664C264.336 36.9627 263.653 37.112 262.864 37.112ZM272.68 37.144C271.848 37.144 271.096 36.9573 270.424 36.584C269.752 36.2 269.224 35.6667 268.84 34.984C268.456 34.2907 268.264 33.4907 268.264 32.584C268.264 31.688 268.462 30.8933 268.856 30.2C269.251 29.5067 269.79 28.9733 270.472 28.6C271.155 28.2267 271.918 28.04 272.76 28.04C273.603 28.04 274.366 28.2267 275.048 28.6C275.731 28.9733 276.27 29.5067 276.664 30.2C277.059 30.8933 277.256 31.688 277.256 32.584C277.256 33.48 277.054 34.2747 276.648 34.968C276.243 35.6613 275.688 36.2 274.984 36.584C274.291 36.9573 273.523 37.144 272.68 37.144ZM272.68 35.56C273.15 35.56 273.587 35.448 273.992 35.224C274.408 35 274.744 34.664 275 34.216C275.256 33.768 275.384 33.224 275.384 32.584C275.384 31.944 275.262 31.4053 275.016 30.968C274.771 30.52 274.446 30.184 274.04 29.96C273.635 29.736 273.198 29.624 272.728 29.624C272.259 29.624 271.822 29.736 271.416 29.96C271.022 30.184 270.707 30.52 270.472 30.968C270.238 31.4053 270.12 31.944 270.12 32.584C270.12 33.5333 270.36 34.2693 270.84 34.792C271.331 35.304 271.944 35.56 272.68 35.56ZM282.259 37.144C281.566 37.144 280.942 37.0213 280.387 36.776C279.843 36.52 279.411 36.1787 279.091 35.752C278.771 35.3147 278.601 34.8293 278.579 34.296H280.467C280.499 34.6693 280.675 34.984 280.995 35.24C281.326 35.4853 281.737 35.608 282.227 35.608C282.739 35.608 283.134 35.512 283.411 35.32C283.699 35.1173 283.843 34.8613 283.843 34.552C283.843 34.2213 283.683 33.976 283.363 33.816C283.054 33.656 282.558 33.48 281.875 33.288C281.214 33.1067 280.675 32.9307 280.259 32.76C279.843 32.5893 279.481 32.328 279.171 31.976C278.873 31.624 278.723 31.16 278.723 30.584C278.723 30.1147 278.862 29.688 279.139 29.304C279.417 28.9093 279.811 28.6 280.323 28.376C280.846 28.152 281.443 28.04 282.115 28.04C283.118 28.04 283.923 28.296 284.531 28.808C285.15 29.3093 285.481 29.9973 285.523 30.872H283.699C283.667 30.4773 283.507 30.1627 283.219 29.928C282.931 29.6933 282.542 29.576 282.051 29.576C281.571 29.576 281.203 29.6667 280.947 29.848C280.691 30.0293 280.563 30.2693 280.563 30.568C280.563 30.8027 280.649 31 280.819 31.16C280.99 31.32 281.198 31.448 281.443 31.544C281.689 31.6293 282.051 31.7413 282.531 31.88C283.171 32.0507 283.694 32.2267 284.099 32.408C284.515 32.5787 284.873 32.8347 285.171 33.176C285.47 33.5173 285.625 33.9707 285.635 34.536C285.635 35.0373 285.497 35.4853 285.219 35.88C284.942 36.2747 284.547 36.584 284.035 36.808C283.534 37.032 282.942 37.144 282.259 37.144ZM288.534 27.016C288.204 27.016 287.926 26.904 287.702 26.68C287.478 26.456 287.366 26.1787 287.366 25.848C287.366 25.5173 287.478 25.24 287.702 25.016C287.926 24.792 288.204 24.68 288.534 24.68C288.854 24.68 289.126 24.792 289.35 25.016C289.574 25.24 289.686 25.5173 289.686 25.848C289.686 26.1787 289.574 26.456 289.35 26.68C289.126 26.904 288.854 27.016 288.534 27.016ZM289.43 28.184V37H287.606V28.184H289.43ZM291.217 32.552C291.217 31.6667 291.398 30.8827 291.761 30.2C292.134 29.5173 292.636 28.9893 293.265 28.616C293.905 28.232 294.609 28.04 295.377 28.04C296.07 28.04 296.673 28.1787 297.185 28.456C297.708 28.7227 298.124 29.0587 298.433 29.464V28.184H300.273V37H298.433V35.688C298.124 36.104 297.702 36.4507 297.169 36.728C296.636 37.0053 296.028 37.144 295.345 37.144C294.588 37.144 293.894 36.952 293.265 36.568C292.636 36.1733 292.134 35.6293 291.761 34.936C291.398 34.232 291.217 33.4373 291.217 32.552ZM298.433 32.584C298.433 31.976 298.305 31.448 298.049 31C297.804 30.552 297.478 30.2107 297.073 29.976C296.668 29.7413 296.23 29.624 295.761 29.624C295.292 29.624 294.854 29.7413 294.449 29.976C294.044 30.2 293.713 30.536 293.457 30.984C293.212 31.4213 293.089 31.944 293.089 32.552C293.089 33.16 293.212 33.6933 293.457 34.152C293.713 34.6107 294.044 34.9627 294.449 35.208C294.865 35.4427 295.302 35.56 295.761 35.56C296.23 35.56 296.668 35.4427 297.073 35.208C297.478 34.9733 297.804 34.632 298.049 34.184C298.305 33.7253 298.433 33.192 298.433 32.584ZM304.493 25.16V37H302.669V25.16H304.493ZM313.656 30.44V31.976H307.08V30.44H313.656ZM318.071 25.88V37H316.247V25.88H318.071ZM317.159 24.76C316.892 24.76 316.663 24.6693 316.471 24.488C316.29 24.296 316.199 24.0667 316.199 23.8C316.199 23.5333 316.29 23.3093 316.471 23.128C316.663 22.936 316.892 22.84 317.159 22.84C317.426 22.84 317.65 22.936 317.831 23.128C318.023 23.3093 318.119 23.5333 318.119 23.8C318.119 24.0667 318.023 24.296 317.831 24.488C317.65 24.6693 317.426 24.76 317.159 24.76ZM319.858 32.552C319.858 31.6667 320.039 30.8827 320.402 30.2C320.775 29.5173 321.276 28.9893 321.906 28.616C322.546 28.232 323.255 28.04 324.034 28.04C324.716 28.04 325.319 28.1787 325.842 28.456C326.375 28.7333 326.786 29.0693 327.074 29.464V28.184H328.914V41.192H327.074V35.72C326.786 36.1147 326.37 36.4507 325.826 36.728C325.282 37.0053 324.663 37.144 323.97 37.144C323.212 37.144 322.519 36.952 321.89 36.568C321.271 36.1733 320.775 35.6293 320.402 34.936C320.039 34.232 319.858 33.4373 319.858 32.552ZM327.074 32.584C327.074 31.976 326.946 31.448 326.69 31C326.444 30.552 326.119 30.2107 325.714 29.976C325.308 29.7413 324.871 29.624 324.402 29.624C323.932 29.624 323.495 29.7413 323.09 29.976C322.684 30.2 322.354 30.536 322.098 30.984C321.852 31.4213 321.73 31.944 321.73 32.552C321.73 33.16 321.852 33.6933 322.098 34.152C322.354 34.6107 322.684 34.9627 323.09 35.208C323.506 35.4427 323.943 35.56 324.402 35.56C324.871 35.56 325.308 35.4427 325.714 35.208C326.119 34.9733 326.444 34.632 326.69 34.184C326.946 33.7253 327.074 33.192 327.074 32.584ZM333.437 29.672V34.552C333.437 34.8827 333.512 35.1227 333.661 35.272C333.821 35.4107 334.088 35.48 334.461 35.48H335.581V37H334.141C333.32 37 332.691 36.808 332.253 36.424C331.816 36.04 331.597 35.416 331.597 34.552V29.672H330.557V28.184H331.597V25.992H333.437V28.184H335.581V29.672H333.437ZM338.191 27.016C337.86 27.016 337.583 26.904 337.359 26.68C337.135 26.456 337.023 26.1787 337.023 25.848C337.023 25.5173 337.135 25.24 337.359 25.016C337.583 24.792 337.86 24.68 338.191 24.68C338.511 24.68 338.783 24.792 339.007 25.016C339.231 25.24 339.343 25.5173 339.343 25.848C339.343 26.1787 339.231 26.456 339.007 26.68C338.783 26.904 338.511 27.016 338.191 27.016ZM339.087 28.184V37H337.263V28.184H339.087ZM344.681 37.144C343.988 37.144 343.364 37.0213 342.809 36.776C342.265 36.52 341.833 36.1787 341.513 35.752C341.193 35.3147 341.023 34.8293 341.001 34.296H342.889C342.921 34.6693 343.097 34.984 343.417 35.24C343.748 35.4853 344.159 35.608 344.649 35.608C345.161 35.608 345.556 35.512 345.833 35.32C346.121 35.1173 346.265 34.8613 346.265 34.552C346.265 34.2213 346.105 33.976 345.785 33.816C345.476 33.656 344.98 33.48 344.297 33.288C343.636 33.1067 343.097 32.9307 342.681 32.76C342.265 32.5893 341.903 32.328 341.593 31.976C341.295 31.624 341.145 31.16 341.145 30.584C341.145 30.1147 341.284 29.688 341.561 29.304C341.839 28.9093 342.233 28.6 342.745 28.376C343.268 28.152 343.865 28.04 344.537 28.04C345.54 28.04 346.345 28.296 346.953 28.808C347.572 29.3093 347.903 29.9973 347.945 30.872H346.121C346.089 30.4773 345.929 30.1627 345.641 29.928C345.353 29.6933 344.964 29.576 344.473 29.576C343.993 29.576 343.625 29.6667 343.369 29.848C343.113 30.0293 342.985 30.2693 342.985 30.568C342.985 30.8027 343.071 31 343.241 31.16C343.412 31.32 343.62 31.448 343.865 31.544C344.111 31.6293 344.473 31.7413 344.953 31.88C345.593 32.0507 346.116 32.2267 346.521 32.408C346.937 32.5787 347.295 32.8347 347.593 33.176C347.892 33.5173 348.047 33.9707 348.057 34.536C348.057 35.0373 347.919 35.4853 347.641 35.88C347.364 36.2747 346.969 36.584 346.457 36.808C345.956 37.032 345.364 37.144 344.681 37.144ZM349.42 32.552C349.42 31.6667 349.601 30.8827 349.964 30.2C350.337 29.5173 350.839 28.9893 351.468 28.616C352.108 28.232 352.812 28.04 353.58 28.04C354.273 28.04 354.876 28.1787 355.388 28.456C355.911 28.7227 356.327 29.0587 356.636 29.464V28.184H358.476V37H356.636V35.688C356.327 36.104 355.905 36.4507 355.372 36.728C354.839 37.0053 354.231 37.144 353.548 37.144C352.791 37.144 352.097 36.952 351.468 36.568C350.839 36.1733 350.337 35.6293 349.964 34.936C349.601 34.232 349.42 33.4373 349.42 32.552ZM356.636 32.584C356.636 31.976 356.508 31.448 356.252 31C356.007 30.552 355.681 30.2107 355.276 29.976C354.871 29.7413 354.433 29.624 353.964 29.624C353.495 29.624 353.057 29.7413 352.652 29.976C352.247 30.2 351.916 30.536 351.66 30.984C351.415 31.4213 351.292 31.944 351.292 32.552C351.292 33.16 351.415 33.6933 351.66 34.152C351.916 34.6107 352.247 34.9627 352.652 35.208C353.068 35.4427 353.505 35.56 353.964 35.56C354.433 35.56 354.871 35.4427 355.276 35.208C355.681 34.9733 356.007 34.632 356.252 34.184C356.508 33.7253 356.636 33.192 356.636 32.584ZM360.264 32.552C360.264 31.6667 360.445 30.8827 360.808 30.2C361.181 29.5173 361.683 28.9893 362.312 28.616C362.952 28.232 363.661 28.04 364.44 28.04C365.016 28.04 365.581 28.168 366.136 28.424C366.701 28.6693 367.149 29 367.48 29.416V25.16H369.32V37H367.48V35.672C367.181 36.0987 366.765 36.4507 366.232 36.728C365.709 37.0053 365.107 37.144 364.424 37.144C363.656 37.144 362.952 36.952 362.312 36.568C361.683 36.1733 361.181 35.6293 360.808 34.936C360.445 34.232 360.264 33.4373 360.264 32.552ZM367.48 32.584C367.48 31.976 367.352 31.448 367.096 31C366.851 30.552 366.525 30.2107 366.12 29.976C365.715 29.7413 365.277 29.624 364.808 29.624C364.339 29.624 363.901 29.7413 363.496 29.976C363.091 30.2 362.76 30.536 362.504 30.984C362.259 31.4213 362.136 31.944 362.136 32.552C362.136 33.16 362.259 33.6933 362.504 34.152C362.76 34.6107 363.091 34.9627 363.496 35.208C363.912 35.4427 364.349 35.56 364.808 35.56C365.277 35.56 365.715 35.4427 366.12 35.208C366.525 34.9733 366.851 34.632 367.096 34.184C367.352 33.7253 367.48 33.192 367.48 32.584ZM372.644 27.016C372.313 27.016 372.036 26.904 371.812 26.68C371.588 26.456 371.476 26.1787 371.476 25.848C371.476 25.5173 371.588 25.24 371.812 25.016C372.036 24.792 372.313 24.68 372.644 24.68C372.964 24.68 373.236 24.792 373.46 25.016C373.684 25.24 373.796 25.5173 373.796 25.848C373.796 26.1787 373.684 26.456 373.46 26.68C373.236 26.904 372.964 27.016 372.644 27.016ZM373.54 28.184V37H371.716V28.184H373.54ZM265.328 53L261.024 48.024V53H259.2V41.88H261.024V46.952L265.344 41.88H267.632L262.8 47.448L267.712 53H265.328ZM273.149 53.144C272.317 53.144 271.565 52.9573 270.893 52.584C270.221 52.2 269.693 51.6667 269.309 50.984C268.925 50.2907 268.733 49.4907 268.733 48.584C268.733 47.688 268.93 46.8933 269.325 46.2C269.72 45.5067 270.258 44.9733 270.941 44.6C271.624 44.2267 272.386 44.04 273.229 44.04C274.072 44.04 274.834 44.2267 275.517 44.6C276.2 44.9733 276.738 45.5067 277.133 46.2C277.528 46.8933 277.725 47.688 277.725 48.584C277.725 49.48 277.522 50.2747 277.117 50.968C276.712 51.6613 276.157 52.2 275.453 52.584C274.76 52.9573 273.992 53.144 273.149 53.144ZM273.149 51.56C273.618 51.56 274.056 51.448 274.461 51.224C274.877 51 275.213 50.664 275.469 50.216C275.725 49.768 275.853 49.224 275.853 48.584C275.853 47.944 275.73 47.4053 275.485 46.968C275.24 46.52 274.914 46.184 274.509 45.96C274.104 45.736 273.666 45.624 273.197 45.624C272.728 45.624 272.29 45.736 271.885 45.96C271.49 46.184 271.176 46.52 270.941 46.968C270.706 47.4053 270.589 47.944 270.589 48.584C270.589 49.5333 270.829 50.2693 271.309 50.792C271.8 51.304 272.413 51.56 273.149 51.56ZM281.352 41.16V53H279.528V41.16H281.352ZM285.571 41.16V53H283.747V41.16H285.571ZM296.046 48.376C296.046 48.7067 296.024 49.0053 295.982 49.272H289.246C289.299 49.976 289.56 50.5413 290.03 50.968C290.499 51.3947 291.075 51.608 291.758 51.608C292.739 51.608 293.432 51.1973 293.838 50.376H295.806C295.539 51.1867 295.054 51.8533 294.35 52.376C293.656 52.888 292.792 53.144 291.758 53.144C290.915 53.144 290.158 52.9573 289.486 52.584C288.824 52.2 288.302 51.6667 287.918 50.984C287.544 50.2907 287.358 49.4907 287.358 48.584C287.358 47.6773 287.539 46.8827 287.902 46.2C288.275 45.5067 288.792 44.9733 289.454 44.6C290.126 44.2267 290.894 44.04 291.758 44.04C292.59 44.04 293.331 44.2213 293.982 44.584C294.632 44.9467 295.139 45.4587 295.502 46.12C295.864 46.7707 296.046 47.5227 296.046 48.376ZM294.142 47.8C294.131 47.128 293.891 46.5893 293.422 46.184C292.952 45.7787 292.371 45.576 291.678 45.576C291.048 45.576 290.51 45.7787 290.062 46.184C289.614 46.5787 289.347 47.1173 289.262 47.8H294.142ZM297.233 48.584C297.233 47.6773 297.414 46.8827 297.777 46.2C298.15 45.5067 298.662 44.9733 299.313 44.6C299.963 44.2267 300.71 44.04 301.553 44.04C302.619 44.04 303.499 44.296 304.193 44.808C304.897 45.3093 305.371 46.0293 305.617 46.968H303.649C303.489 46.5307 303.233 46.1893 302.881 45.944C302.529 45.6987 302.086 45.576 301.553 45.576C300.806 45.576 300.209 45.8427 299.761 46.376C299.323 46.8987 299.105 47.6347 299.105 48.584C299.105 49.5333 299.323 50.2747 299.761 50.808C300.209 51.3413 300.806 51.608 301.553 51.608C302.609 51.608 303.307 51.144 303.649 50.216H305.617C305.361 51.112 304.881 51.8267 304.177 52.36C303.473 52.8827 302.598 53.144 301.553 53.144C300.71 53.144 299.963 52.9573 299.313 52.584C298.662 52.2 298.15 51.6667 297.777 50.984C297.414 50.2907 297.233 49.4907 297.233 48.584Z" fill="#111827"/>
<path d="M38.9238 10.7734C38.4499 10.7904 37.7559 10.8919 36.8418 11.0781C35.9277 11.2643 35.1829 11.5436 34.6074 11.916C34.0319 12.3053 33.6341 13.1094 33.4141 14.3281C33.194 15.5469 33.084 17.0365 33.084 18.7969V34.4629C33.084 36.4603 32.6693 38.1953 31.8398 39.668C31.0104 41.1406 29.9186 42.3509 28.5645 43.2988C27.2272 44.2129 25.8138 44.8646 24.3242 45.2539C22.8516 45.6602 21.4382 45.8633 20.084 45.8633C17.9173 45.8633 15.9876 45.5755 14.2949 45C12.6022 44.4414 11.1803 43.6797 10.0293 42.7148C8.89518 41.75 8.04036 40.6497 7.46484 39.4141C6.88932 38.1615 6.60156 36.8581 6.60156 35.5039V14.2012C6.60156 13.6087 6.5 13.1178 6.29688 12.7285C6.11068 12.3223 5.72135 11.9499 5.12891 11.6113C4.70573 11.3743 4.16406 11.1882 3.50391 11.0527C2.84375 10.9004 2.30208 10.8073 1.87891 10.7734V8.9707H16.8848V10.7734C16.4108 10.7904 15.8099 10.8665 15.082 11.002C14.3711 11.1374 13.8464 11.2643 13.5078 11.3828C12.9323 11.5859 12.543 11.9245 12.3398 12.3984C12.1536 12.8724 12.0605 13.3887 12.0605 13.9473V33.8535C12.0605 34.8184 12.1621 35.834 12.3652 36.9004C12.5853 37.9499 13.0085 38.9316 13.6348 39.8457C14.2949 40.7767 15.1921 41.5384 16.3262 42.1309C17.4603 42.7233 19.0176 43.0195 20.998 43.0195C22.86 43.0195 24.4173 42.7233 25.6699 42.1309C26.9395 41.5384 27.9382 40.7598 28.666 39.7949C29.36 38.8809 29.8509 37.9245 30.1387 36.9258C30.4264 35.9271 30.5703 34.9199 30.5703 33.9043V19.127C30.5703 17.248 30.4349 15.7161 30.1641 14.5312C29.8932 13.3294 29.4954 12.5423 28.9707 12.1699C28.3783 11.7467 27.5658 11.4167 26.5332 11.1797C25.5176 10.9427 24.7389 10.8073 24.1973 10.7734V8.9707H38.9238V10.7734ZM79.3325 10.7734C78.8585 10.7904 78.1307 10.9258 77.1489 11.1797C76.1671 11.4336 75.4647 11.696 75.0415 11.9668C74.4321 12.39 74.0174 13.2025 73.7973 14.4043C73.5942 15.6061 73.4927 17.1296 73.4927 18.9746V45.3555H71.2837L49.4477 15.877V34.4629C49.4477 36.5449 49.5747 38.1445 49.8286 39.2617C50.0994 40.3789 50.5057 41.1745 51.0473 41.6484C51.4367 42.0208 52.2407 42.3678 53.4595 42.6895C54.6782 43.0111 55.4822 43.1803 55.8716 43.1973V45H41.0942V43.1973C41.5513 43.1634 42.3214 43.0026 43.4048 42.7148C44.4881 42.4102 45.1652 42.1393 45.436 41.9023C46.0285 41.4284 46.4347 40.709 46.6548 39.7441C46.8748 38.7624 46.9848 37.0951 46.9848 34.7422V16.9941C46.9848 16.2155 46.8494 15.4368 46.5786 14.6582C46.3078 13.8796 45.9438 13.2786 45.4868 12.8555C44.8774 12.2969 44.048 11.8229 42.9985 11.4336C41.966 11.0273 41.1281 10.8073 40.4848 10.7734V8.9707H50.768L71.0298 36.4434V19.3047C71.0298 17.2057 70.8943 15.5977 70.6235 14.4805C70.3527 13.3464 69.9634 12.5931 69.4555 12.2207C68.9816 11.8991 68.2029 11.5859 67.1196 11.2812C66.0532 10.9766 65.2407 10.8073 64.6821 10.7734V8.9707H79.3325V10.7734ZM113.089 34.3867L112.403 45H82.4931V43.1973C83.0009 43.1634 83.678 43.0957 84.5244 42.9941C85.3707 42.8757 85.9209 42.7572 86.1748 42.6387C86.7164 42.3848 87.0888 42.0547 87.292 41.6484C87.512 41.2422 87.622 40.7259 87.622 40.0996V14.2012C87.622 13.6426 87.5289 13.1517 87.3427 12.7285C87.1565 12.2884 86.7672 11.9329 86.1748 11.6621C85.7177 11.4421 85.0999 11.2474 84.3213 11.0781C83.5595 10.9089 82.9502 10.8073 82.4931 10.7734V8.9707H110.372V17.6543H108.468C108.129 16.3678 107.393 15.0052 106.259 13.5664C105.142 12.1107 104.075 11.3151 103.06 11.1797C102.535 11.112 101.908 11.0612 101.181 11.0273C100.453 10.9935 99.6233 10.9766 98.6923 10.9766H93.0302V25.2969H97.0927C98.3961 25.2969 99.344 25.1784 99.9365 24.9414C100.546 24.6875 101.079 24.2728 101.536 23.6973C101.908 23.2064 102.222 22.5547 102.476 21.7422C102.746 20.9128 102.924 20.1341 103.009 19.4062H104.913V33.498H103.009C102.941 32.6855 102.755 31.8307 102.45 30.9336C102.162 30.0195 101.858 29.3594 101.536 28.9531C101.011 28.293 100.41 27.8613 99.7334 27.6582C99.0732 27.4551 98.193 27.3535 97.0927 27.3535H93.0302V38.1699C93.0302 39.2533 93.1064 40.1081 93.2588 40.7344C93.4111 41.3607 93.7073 41.8346 94.1474 42.1562C94.5875 42.4779 95.1884 42.6895 95.9502 42.791C96.7119 42.8757 97.7952 42.918 99.2002 42.918C99.7588 42.918 100.495 42.918 101.409 42.918C102.323 42.918 103.093 42.8841 103.72 42.8164C104.363 42.7487 105.023 42.6302 105.7 42.4609C106.394 42.2747 106.885 42.0293 107.173 41.7246C107.951 40.9121 108.764 39.6849 109.61 38.043C110.474 36.3841 111.024 35.1654 111.261 34.3867H113.089ZM133.16 45.8379C131.01 45.8379 128.945 45.4147 126.964 44.5684C125.001 43.722 123.257 42.5033 121.734 40.9121C120.227 39.321 119.025 37.3828 118.128 35.0977C117.231 32.7956 116.783 30.2057 116.783 27.3281C116.783 24.4505 117.223 21.8438 118.103 19.5078C118.983 17.1549 120.202 15.1322 121.759 13.4395C123.3 11.7637 125.119 10.4688 127.218 9.55469C129.317 8.64062 131.56 8.18359 133.947 8.18359C135.724 8.18359 137.332 8.40365 138.771 8.84375C140.21 9.28385 141.581 9.90169 142.884 10.6973L143.925 8.9707H145.956L146.185 21.8184H144.103C143.832 20.5658 143.426 19.2116 142.884 17.7559C142.343 16.2832 141.708 15.0391 140.98 14.0234C140.167 12.8724 139.203 11.9753 138.085 11.332C136.968 10.6719 135.69 10.3418 134.251 10.3418C132.609 10.3418 131.078 10.7057 129.656 11.4336C128.251 12.1615 127.032 13.2363 125.999 14.6582C125.018 16.0293 124.247 17.7728 123.689 19.8887C123.13 22.0046 122.851 24.3659 122.851 26.9727C122.851 29.2747 123.139 31.3906 123.714 33.3203C124.307 35.2331 125.145 36.9173 126.228 38.373C127.311 39.8118 128.589 40.9375 130.062 41.75C131.552 42.5625 133.21 42.9688 135.039 42.9688C136.41 42.9688 137.671 42.7572 138.822 42.334C139.973 41.8939 140.971 41.3184 141.818 40.6074C142.664 39.8626 143.409 39.0163 144.052 38.0684C144.695 37.1204 145.22 36.0879 145.626 34.9707L147.531 35.8848C146.075 39.4564 144.145 42.0124 141.742 43.5527C139.338 45.0762 136.477 45.8379 133.16 45.8379Z" fill="#143151"/>
<path d="M64.4062 49.834L66.3398 48.8906H66.5332V55.5996C66.5332 56.0449 66.5508 56.3223 66.5859 56.4316C66.625 56.541 66.7031 56.625 66.8203 56.6836C66.9375 56.7422 67.1758 56.7754 67.5352 56.7832V57H64.5469V56.7832C64.9219 56.7754 65.1641 56.7441 65.2734 56.6895C65.3828 56.6309 65.459 56.5547 65.502 56.4609C65.5449 56.3633 65.5664 56.0762 65.5664 55.5996V51.3105C65.5664 50.7324 65.5469 50.3613 65.5078 50.1973C65.4805 50.0723 65.4297 49.9805 65.3555 49.9219C65.2852 49.8633 65.1992 49.834 65.0977 49.834C64.9531 49.834 64.752 49.8945 64.4941 50.0156L64.4062 49.834ZM69.6328 57.1641V56.9473C70.1406 56.9395 70.6133 56.8223 71.0508 56.5957C71.4883 56.3652 71.9102 55.9648 72.3164 55.3945C72.7266 54.8242 73.0117 54.1973 73.1719 53.5137C72.5586 53.9082 72.0039 54.1055 71.5078 54.1055C70.9492 54.1055 70.4707 53.8906 70.0723 53.4609C69.6738 53.0273 69.4746 52.4531 69.4746 51.7383C69.4746 51.043 69.6738 50.4238 70.0723 49.8809C70.5527 49.2207 71.1797 48.8906 71.9531 48.8906C72.6055 48.8906 73.1641 49.1602 73.6289 49.6992C74.1992 50.3672 74.4844 51.1914 74.4844 52.1719C74.4844 53.0547 74.2676 53.8789 73.834 54.6445C73.4004 55.4062 72.7969 56.0391 72.0234 56.543C71.3945 56.957 70.709 57.1641 69.9668 57.1641H69.6328ZM73.2656 53.0801C73.3359 52.5723 73.3711 52.166 73.3711 51.8613C73.3711 51.4824 73.3066 51.0742 73.1777 50.6367C73.0488 50.1953 72.8652 49.8574 72.627 49.623C72.3926 49.3887 72.125 49.2715 71.8242 49.2715C71.4766 49.2715 71.1719 49.4277 70.9102 49.7402C70.6484 50.0527 70.5176 50.5176 70.5176 51.1348C70.5176 51.959 70.6914 52.6035 71.0391 53.0684C71.293 53.4043 71.6055 53.5723 71.9766 53.5723C72.1562 53.5723 72.3691 53.5293 72.6152 53.4434C72.8613 53.3574 73.0781 53.2363 73.2656 53.0801ZM75.6094 50.5664C75.8359 50.0312 76.1211 49.6191 76.4648 49.3301C76.8125 49.0371 77.2441 48.8906 77.7598 48.8906C78.3965 48.8906 78.8848 49.0977 79.2246 49.5117C79.4824 49.8203 79.6113 50.1504 79.6113 50.502C79.6113 51.0801 79.248 51.6777 78.5215 52.2949C79.0098 52.4863 79.3789 52.7598 79.6289 53.1152C79.8789 53.4707 80.0039 53.8887 80.0039 54.3691C80.0039 55.0566 79.7852 55.6523 79.3477 56.1562C78.7773 56.8125 77.9512 57.1406 76.8691 57.1406C76.334 57.1406 75.9688 57.0742 75.7734 56.9414C75.582 56.8086 75.4863 56.666 75.4863 56.5137C75.4863 56.4004 75.5312 56.3008 75.6211 56.2148C75.7148 56.1289 75.8262 56.0859 75.9551 56.0859C76.0527 56.0859 76.1523 56.1016 76.2539 56.1328C76.3203 56.1523 76.4707 56.2246 76.7051 56.3496C76.9395 56.4707 77.1016 56.543 77.1914 56.5664C77.3359 56.6094 77.4902 56.6309 77.6543 56.6309C78.0527 56.6309 78.3984 56.4766 78.6914 56.168C78.9883 55.8594 79.1367 55.4941 79.1367 55.0723C79.1367 54.7637 79.0684 54.4629 78.9316 54.1699C78.8301 53.9512 78.7188 53.7852 78.5977 53.6719C78.4297 53.5156 78.1992 53.375 77.9062 53.25C77.6133 53.1211 77.3145 53.0566 77.0098 53.0566H76.8223V52.8809C77.1309 52.8418 77.4395 52.7305 77.748 52.5469C78.0605 52.3633 78.2871 52.1426 78.4277 51.8848C78.5684 51.627 78.6387 51.3438 78.6387 51.0352C78.6387 50.6328 78.5117 50.3086 78.2578 50.0625C78.0078 49.8125 77.6953 49.6875 77.3203 49.6875C76.7148 49.6875 76.209 50.0117 75.8027 50.6602L75.6094 50.5664ZM81.4336 53.0742C81.4336 52.168 81.5703 51.3887 81.8438 50.7363C82.1172 50.0801 82.4805 49.5918 82.9336 49.2715C83.2852 49.0176 83.6484 48.8906 84.0234 48.8906C84.6328 48.8906 85.1797 49.2012 85.6641 49.8223C86.2695 50.5918 86.5723 51.6348 86.5723 52.9512C86.5723 53.873 86.4395 54.6562 86.1738 55.3008C85.9082 55.9453 85.5684 56.4141 85.1543 56.707C84.7441 56.9961 84.3477 57.1406 83.9648 57.1406C83.207 57.1406 82.5762 56.6934 82.0723 55.7988C81.6465 55.0449 81.4336 54.1367 81.4336 53.0742ZM82.582 53.2207C82.582 54.3145 82.7168 55.207 82.9863 55.8984C83.209 56.4805 83.541 56.7715 83.9824 56.7715C84.1934 56.7715 84.4121 56.6777 84.6387 56.4902C84.8652 56.2988 85.0371 55.9805 85.1543 55.5352C85.334 54.8633 85.4238 53.916 85.4238 52.6934C85.4238 51.7871 85.3301 51.0312 85.1426 50.4258C85.002 49.9766 84.8203 49.6582 84.5977 49.4707C84.4375 49.3418 84.2441 49.2773 84.0176 49.2773C83.752 49.2773 83.5156 49.3965 83.3086 49.6348C83.0273 49.959 82.8359 50.4688 82.7344 51.1641C82.6328 51.8594 82.582 52.5449 82.582 53.2207Z" fill="#143151"/>
<defs>
<clipPath id="clip0_306_1053">
<rect width="48" height="62" fill="white" transform="translate(200)"/>
</clipPath>
</defs>
</svg>
