<svg width="550" height="700" viewBox="0 0 550 700" fill="none" xmlns="http://www.w3.org/2000/svg">
<path d="M0 0H550V425C550 576.878 426.878 700 275 700C123.122 700 0 576.878 0 425V0Z" fill="#143151"/>
<path d="M62.8844 407.45C45.6673 391.191 17.0336 393.613 17.0336 393.613C17.0336 393.613 16.2885 422.427 33.5057 438.685C50.7228 454.944 79.3707 452.521 79.3707 452.521C79.3707 452.521 80.1016 423.708 62.8844 407.45Z" fill="white"/>
<path d="M68.443 467.104C47.7239 455.637 20.5916 465.102 20.5916 465.102C20.5916 465.102 27.0346 493.197 47.7537 504.663C68.4727 516.13 95.6187 506.66 95.6187 506.66C95.6187 506.66 89.162 478.57 68.443 467.104Z" fill="white"/>
<path d="M90.0613 522.07C67.1564 516.059 43.1908 531.915 43.1908 531.915C43.1908 531.915 56.3545 557.557 79.2594 563.568C102.164 569.578 126.142 553.715 126.142 553.715C126.142 553.715 112.966 528.08 90.0613 522.07Z" fill="white"/>
<path d="M124.644 570.252C100.965 570.048 81.6239 591.301 81.6239 591.301C81.6239 591.301 100.679 612.927 124.359 613.132C148.038 613.337 167.389 592.074 167.389 592.074C167.389 592.074 148.324 570.457 124.644 570.252Z" fill="white"/>
<path d="M170.02 608.562C147.02 614.198 133.512 639.561 133.512 639.561C133.512 639.561 157.309 655.826 180.309 650.19C203.309 644.554 216.823 619.178 216.823 619.178C216.823 619.178 193.02 602.926 170.02 608.562Z" fill="white"/>
<path d="M223.364 634.495C202.486 645.67 195.705 673.594 195.705 673.594C195.705 673.594 222.797 683.435 243.675 672.26C264.553 661.085 271.337 633.147 271.337 633.147C271.337 633.147 244.241 623.32 223.364 634.495Z" fill="white"/>
<path d="M487.661 407.45C504.878 391.191 533.511 393.613 533.511 393.613C533.511 393.613 534.256 422.427 517.039 438.685C499.822 454.944 471.174 452.521 471.174 452.521C471.174 452.521 470.443 423.708 487.661 407.45Z" fill="white"/>
<path d="M482.102 467.104C502.821 455.637 529.953 465.102 529.953 465.102C529.953 465.102 523.51 493.197 502.791 504.663C482.072 516.13 454.926 506.66 454.926 506.66C454.926 506.66 461.383 478.57 482.102 467.104Z" fill="white"/>
<path d="M460.484 522.07C483.389 516.059 507.354 531.915 507.354 531.915C507.354 531.915 494.19 557.557 471.285 563.568C448.381 569.578 424.403 553.715 424.403 553.715C424.403 553.715 437.579 528.08 460.484 522.07Z" fill="white"/>
<path d="M425.901 570.252C449.58 570.048 468.921 591.301 468.921 591.301C468.921 591.301 449.866 612.927 426.186 613.132C402.507 613.337 383.156 592.074 383.156 592.074C383.156 592.074 402.221 570.457 425.901 570.252Z" fill="white"/>
<path d="M380.525 608.562C403.525 614.198 417.033 639.561 417.033 639.561C417.033 639.561 393.236 655.826 370.236 650.19C347.236 644.554 333.722 619.178 333.722 619.178C333.722 619.178 357.525 602.926 380.525 608.562Z" fill="white"/>
<path d="M327.181 634.495C348.059 645.67 354.84 673.594 354.84 673.594C354.84 673.594 327.748 683.435 306.87 672.26C285.992 661.085 279.208 633.147 279.208 633.147C279.208 633.147 306.303 623.32 327.181 634.495Z" fill="white"/>
<path d="M275 430.583V208.5C275 208.5 257.083 174.333 194.375 174.333C131.667 174.333 113.75 208.5 113.75 208.5V430.583C113.75 430.583 131.667 396.417 194.375 396.417C257.083 396.417 275 430.583 275 430.583Z" fill="white"/>
<path d="M292.917 430.583V208.5C292.917 208.5 308.845 174.333 364.584 174.333C420.322 174.333 436.25 208.5 436.25 208.5V430.583C436.25 430.583 420.322 396.417 364.584 396.417C308.845 396.417 292.917 430.583 292.917 430.583Z" fill="white"/>
<path d="M149 174H203V253L176 235L149 253V174Z" fill="#143151"/>
<path d="M137.817 54V44.016H157.785V114H146.745V54H137.817ZM205.651 94.992C206.291 98.192 207.667 100.624 209.779 102.288C211.891 103.952 214.739 104.784 218.323 104.784C222.867 104.784 226.195 102.992 228.307 99.408C230.419 95.824 231.475 89.712 231.475 81.072C229.939 83.248 227.763 84.944 224.947 86.16C222.195 87.312 219.187 87.888 215.923 87.888C211.763 87.888 207.987 87.056 204.595 85.392C201.203 83.664 198.515 81.136 196.531 77.808C194.611 74.416 193.651 70.32 193.651 65.52C193.651 58.48 195.699 52.88 199.795 48.72C203.955 44.496 209.651 42.384 216.883 42.384C225.587 42.384 231.763 45.296 235.411 51.12C239.123 56.88 240.979 65.744 240.979 77.712C240.979 85.968 240.275 92.72 238.867 97.968C237.523 103.216 235.155 107.184 231.763 109.872C228.371 112.56 223.667 113.904 217.651 113.904C210.803 113.904 205.523 112.112 201.811 108.528C198.099 104.944 196.019 100.432 195.571 94.992H205.651ZM217.843 78.672C221.683 78.672 224.691 77.488 226.867 75.12C229.107 72.688 230.227 69.488 230.227 65.52C230.227 61.104 229.043 57.68 226.675 55.248C224.371 52.752 221.203 51.504 217.171 51.504C213.139 51.504 209.939 52.784 207.571 55.344C205.267 57.84 204.115 61.136 204.115 65.232C204.115 69.136 205.235 72.368 207.475 74.928C209.779 77.424 213.235 78.672 217.843 78.672ZM309.789 60.24C309.085 57.296 307.805 55.088 305.949 53.616C304.093 52.144 301.501 51.408 298.173 51.408C293.117 51.408 289.341 53.36 286.845 57.264C284.349 61.104 283.037 67.504 282.909 76.464C284.573 73.648 287.005 71.472 290.205 69.936C293.405 68.4 296.861 67.632 300.573 67.632C304.797 67.632 308.509 68.56 311.709 70.416C314.973 72.208 317.501 74.832 319.293 78.288C321.149 81.744 322.077 85.872 322.077 90.672C322.077 95.152 321.181 99.152 319.389 102.672C317.661 106.192 315.069 108.976 311.613 111.024C308.157 113.008 303.997 114 299.133 114C292.541 114 287.357 112.56 283.581 109.68C279.869 106.736 277.245 102.608 275.709 97.296C274.237 91.984 273.501 85.36 273.501 77.424C273.501 54 281.757 42.288 298.269 42.288C304.669 42.288 309.693 44.016 313.341 47.472C317.053 50.928 319.229 55.184 319.869 60.24H309.789ZM298.173 76.848C294.269 76.848 290.941 78.032 288.189 80.4C285.501 82.704 284.157 86.064 284.157 90.48C284.157 94.896 285.405 98.416 287.901 101.04C290.461 103.6 294.013 104.88 298.557 104.88C302.589 104.88 305.757 103.632 308.061 101.136C310.429 98.64 311.613 95.312 311.613 91.152C311.613 86.8 310.461 83.344 308.157 80.784C305.917 78.16 302.589 76.848 298.173 76.848ZM398.071 53.424H365.911V72.528C367.255 70.736 369.239 69.232 371.863 68.016C374.551 66.8 377.399 66.192 380.407 66.192C385.783 66.192 390.135 67.344 393.463 69.648C396.855 71.952 399.255 74.864 400.663 78.384C402.135 81.904 402.871 85.616 402.871 89.52C402.871 94.256 401.943 98.48 400.087 102.192C398.295 105.84 395.575 108.72 391.927 110.832C388.343 112.944 383.927 114 378.679 114C371.703 114 366.103 112.272 361.879 108.816C357.655 105.36 355.127 100.784 354.295 95.088H364.951C365.655 98.096 367.223 100.496 369.655 102.288C372.087 104.016 375.127 104.88 378.775 104.88C383.319 104.88 386.711 103.504 388.951 100.752C391.255 98 392.407 94.352 392.407 89.808C392.407 85.2 391.255 81.68 388.951 79.248C386.647 76.752 383.255 75.504 378.775 75.504C375.639 75.504 372.983 76.304 370.807 77.904C368.695 79.44 367.159 81.552 366.199 84.24H355.831V43.824H398.071V53.424Z" fill="white"/>
<path d="M12 39H83V49H12V39Z" fill="white"/>
<path d="M466 39H537V49H466V39Z" fill="white"/>
<path fill-rule="evenodd" clip-rule="evenodd" d="M524 49H479V401.59C479.525 401.056 480.061 400.53 480.61 400.012C493.309 388.019 510.123 382.758 524 380.513V49Z" fill="white"/>
<path fill-rule="evenodd" clip-rule="evenodd" d="M70 49H25V378.71C39.1382 380.807 56.6299 385.921 70 397.988V49Z" fill="white"/>
</svg>
